<mxfile host="app.diagrams.net" modified="2021-08-31T01:31:01.810Z" agent="5.0 (Macintosh; Intel Mac OS X 10_15_6) AppleWebKit/605.1.15 (KHTML, like Gecko) Version/14.0.3 Safari/605.1.15" etag="uzzzwMgh7Yv9c90zSf2A" version="14.7.0" type="github">
  <diagram id="6imWZsSA1UWf6HAIqSkL" name="Page-1">
    <mxGraphModel dx="946" dy="539" grid="1" gridSize="10" guides="1" tooltips="1" connect="1" arrows="1" fold="1" page="1" pageScale="1" pageWidth="827" pageHeight="1169" math="0" shadow="0">
      <root>
        <mxCell id="0" />
        <mxCell id="1" parent="0" />
        <mxCell id="5RzqA2Xlz0qxmawMThW2-2" value="" style="shape=ext;double=1;rounded=0;whiteSpace=wrap;html=1;" vertex="1" parent="1">
          <mxGeometry x="40" y="240" width="760" height="480" as="geometry" />
        </mxCell>
        <mxCell id="Ub4LqbdLNaHDUeAe_q9h-45" value="&lt;b&gt;&lt;font style=&quot;font-size: 20px&quot;&gt;SDK&lt;/font&gt;&lt;/b&gt;" style="rounded=0;whiteSpace=wrap;html=1;fillColor=#d5e8d4;strokeColor=#82b366;labelPosition=left;verticalLabelPosition=top;align=right;verticalAlign=bottom;" parent="1" vertex="1">
          <mxGeometry x="120" y="280" width="363.5" height="400" as="geometry" />
        </mxCell>
        <mxCell id="Ub4LqbdLNaHDUeAe_q9h-30" value="&lt;font style=&quot;font-size: 20px&quot;&gt;&lt;b&gt;APP&lt;/b&gt;&lt;/font&gt;" style="rounded=0;whiteSpace=wrap;html=1;fillColor=#dae8fc;strokeColor=#6c8ebf;labelPosition=right;verticalLabelPosition=top;align=left;verticalAlign=bottom;" parent="1" vertex="1">
          <mxGeometry x="600" y="280" width="120" height="400" as="geometry" />
        </mxCell>
        <mxCell id="Ub4LqbdLNaHDUeAe_q9h-28" style="edgeStyle=orthogonalEdgeStyle;rounded=0;orthogonalLoop=1;jettySize=auto;html=1;entryX=0.5;entryY=1;entryDx=0;entryDy=0;" parent="1" source="Ub4LqbdLNaHDUeAe_q9h-1" target="Ub4LqbdLNaHDUeAe_q9h-20" edge="1">
          <mxGeometry relative="1" as="geometry">
            <mxPoint x="304.75" y="590" as="targetPoint" />
          </mxGeometry>
        </mxCell>
        <mxCell id="Ub4LqbdLNaHDUeAe_q9h-1" value="PKI&lt;br&gt;(CDS、SSL)" style="rounded=0;whiteSpace=wrap;html=1;" parent="1" vertex="1">
          <mxGeometry x="264.5" y="620" width="80.5" height="40" as="geometry" />
        </mxCell>
        <mxCell id="Ub4LqbdLNaHDUeAe_q9h-27" style="edgeStyle=orthogonalEdgeStyle;rounded=0;orthogonalLoop=1;jettySize=auto;html=1;entryX=0.25;entryY=1;entryDx=0;entryDy=0;exitX=0.5;exitY=0;exitDx=0;exitDy=0;" parent="1" source="Ub4LqbdLNaHDUeAe_q9h-3" target="Ub4LqbdLNaHDUeAe_q9h-20" edge="1">
          <mxGeometry relative="1" as="geometry" />
        </mxCell>
        <mxCell id="Ub4LqbdLNaHDUeAe_q9h-3" value="BIO&lt;br&gt;(指纹、面部)" style="rounded=0;whiteSpace=wrap;html=1;" parent="1" vertex="1">
          <mxGeometry x="143.5" y="620" width="79" height="40" as="geometry" />
        </mxCell>
        <mxCell id="Ub4LqbdLNaHDUeAe_q9h-29" style="edgeStyle=orthogonalEdgeStyle;rounded=0;orthogonalLoop=1;jettySize=auto;html=1;entryX=0.75;entryY=1;entryDx=0;entryDy=0;" parent="1" source="Ub4LqbdLNaHDUeAe_q9h-4" target="Ub4LqbdLNaHDUeAe_q9h-20" edge="1">
          <mxGeometry relative="1" as="geometry">
            <Array as="points">
              <mxPoint x="424.5" y="600" />
              <mxPoint x="323.5" y="600" />
            </Array>
          </mxGeometry>
        </mxCell>
        <mxCell id="Ub4LqbdLNaHDUeAe_q9h-4" value="IDaaS" style="rounded=0;whiteSpace=wrap;html=1;" parent="1" vertex="1">
          <mxGeometry x="384.5" y="620" width="80" height="40" as="geometry" />
        </mxCell>
        <mxCell id="Ub4LqbdLNaHDUeAe_q9h-24" style="edgeStyle=orthogonalEdgeStyle;rounded=0;orthogonalLoop=1;jettySize=auto;html=1;entryX=0.5;entryY=1;entryDx=0;entryDy=0;" parent="1" source="Ub4LqbdLNaHDUeAe_q9h-20" target="Ub4LqbdLNaHDUeAe_q9h-21" edge="1">
          <mxGeometry relative="1" as="geometry" />
        </mxCell>
        <mxCell id="Ub4LqbdLNaHDUeAe_q9h-25" style="edgeStyle=orthogonalEdgeStyle;rounded=0;orthogonalLoop=1;jettySize=auto;html=1;entryX=0.5;entryY=1;entryDx=0;entryDy=0;exitX=0.75;exitY=0;exitDx=0;exitDy=0;" parent="1" source="Ub4LqbdLNaHDUeAe_q9h-20" target="Ub4LqbdLNaHDUeAe_q9h-22" edge="1">
          <mxGeometry relative="1" as="geometry" />
        </mxCell>
        <mxCell id="Ub4LqbdLNaHDUeAe_q9h-34" style="edgeStyle=orthogonalEdgeStyle;rounded=0;orthogonalLoop=1;jettySize=auto;html=1;entryX=0;entryY=0.5;entryDx=0;entryDy=0;dashed=1;" parent="1" source="Ub4LqbdLNaHDUeAe_q9h-20" target="Ub4LqbdLNaHDUeAe_q9h-33" edge="1">
          <mxGeometry relative="1" as="geometry" />
        </mxCell>
        <mxCell id="Ub4LqbdLNaHDUeAe_q9h-41" value="通过SDK接口接入" style="edgeLabel;html=1;align=center;verticalAlign=middle;resizable=0;points=[];labelBackgroundColor=none;" parent="Ub4LqbdLNaHDUeAe_q9h-34" vertex="1" connectable="0">
          <mxGeometry x="0.4357" y="3" relative="1" as="geometry">
            <mxPoint x="13" y="-6" as="offset" />
          </mxGeometry>
        </mxCell>
        <mxCell id="Ub4LqbdLNaHDUeAe_q9h-20" value="SDK" style="rounded=0;whiteSpace=wrap;html=1;" parent="1" vertex="1">
          <mxGeometry x="264.5" y="540" width="79" height="40" as="geometry" />
        </mxCell>
        <mxCell id="Ub4LqbdLNaHDUeAe_q9h-26" style="edgeStyle=orthogonalEdgeStyle;rounded=0;orthogonalLoop=1;jettySize=auto;html=1;entryX=0;entryY=0.5;entryDx=0;entryDy=0;exitX=0.5;exitY=0;exitDx=0;exitDy=0;" parent="1" source="Ub4LqbdLNaHDUeAe_q9h-21" target="Ub4LqbdLNaHDUeAe_q9h-23" edge="1">
          <mxGeometry relative="1" as="geometry" />
        </mxCell>
        <mxCell id="Ub4LqbdLNaHDUeAe_q9h-37" style="edgeStyle=orthogonalEdgeStyle;rounded=0;orthogonalLoop=1;jettySize=auto;html=1;dashed=1;" parent="1" source="Ub4LqbdLNaHDUeAe_q9h-21" target="Ub4LqbdLNaHDUeAe_q9h-35" edge="1">
          <mxGeometry relative="1" as="geometry" />
        </mxCell>
        <mxCell id="Ub4LqbdLNaHDUeAe_q9h-39" value="通过JS脚本接入" style="edgeLabel;html=1;align=center;verticalAlign=middle;resizable=0;points=[];labelBackgroundColor=none;" parent="Ub4LqbdLNaHDUeAe_q9h-37" vertex="1" connectable="0">
          <mxGeometry x="0.4203" relative="1" as="geometry">
            <mxPoint x="20" y="-10" as="offset" />
          </mxGeometry>
        </mxCell>
        <mxCell id="Ub4LqbdLNaHDUeAe_q9h-21" value="JSSDK" style="rounded=0;whiteSpace=wrap;html=1;" parent="1" vertex="1">
          <mxGeometry x="264.5" y="380" width="79" height="40" as="geometry" />
        </mxCell>
        <mxCell id="Ub4LqbdLNaHDUeAe_q9h-36" style="edgeStyle=orthogonalEdgeStyle;rounded=0;orthogonalLoop=1;jettySize=auto;html=1;entryX=0.5;entryY=0;entryDx=0;entryDy=0;dashed=1;" parent="1" source="Ub4LqbdLNaHDUeAe_q9h-22" target="Ub4LqbdLNaHDUeAe_q9h-33" edge="1">
          <mxGeometry relative="1" as="geometry" />
        </mxCell>
        <mxCell id="Ub4LqbdLNaHDUeAe_q9h-40" value="通过UI组件接入" style="edgeLabel;html=1;align=center;verticalAlign=middle;resizable=0;points=[];labelBackgroundColor=none;" parent="Ub4LqbdLNaHDUeAe_q9h-36" vertex="1" connectable="0">
          <mxGeometry x="-0.4689" y="4" relative="1" as="geometry">
            <mxPoint x="30" y="-6" as="offset" />
          </mxGeometry>
        </mxCell>
        <mxCell id="Ub4LqbdLNaHDUeAe_q9h-22" value="UIKit&lt;br&gt;支持自定义" style="rounded=0;whiteSpace=wrap;html=1;" parent="1" vertex="1">
          <mxGeometry x="383.5" y="460" width="79" height="40" as="geometry" />
        </mxCell>
        <mxCell id="Ub4LqbdLNaHDUeAe_q9h-38" value="通过H5组件接入" style="edgeStyle=orthogonalEdgeStyle;rounded=0;orthogonalLoop=1;jettySize=auto;html=1;dashed=1;labelBackgroundColor=none;entryX=0.5;entryY=0;entryDx=0;entryDy=0;" parent="1" target="Ub4LqbdLNaHDUeAe_q9h-35" edge="1">
          <mxGeometry x="-0.2427" y="10" relative="1" as="geometry">
            <mxPoint x="462.5" y="320" as="sourcePoint" />
            <mxPoint x="643.5" y="380" as="targetPoint" />
            <mxPoint as="offset" />
          </mxGeometry>
        </mxCell>
        <mxCell id="Ub4LqbdLNaHDUeAe_q9h-23" value="WebUI&lt;br&gt;支持自定义" style="rounded=0;whiteSpace=wrap;html=1;" parent="1" vertex="1">
          <mxGeometry x="383.5" y="300" width="79" height="40" as="geometry" />
        </mxCell>
        <mxCell id="Ub4LqbdLNaHDUeAe_q9h-33" value="Native APP" style="rounded=0;whiteSpace=wrap;html=1;" parent="1" vertex="1">
          <mxGeometry x="620.5" y="540" width="79" height="40" as="geometry" />
        </mxCell>
        <mxCell id="Ub4LqbdLNaHDUeAe_q9h-35" value="Web APP" style="rounded=0;whiteSpace=wrap;html=1;" parent="1" vertex="1">
          <mxGeometry x="620.5" y="380" width="79" height="40" as="geometry" />
        </mxCell>
        <mxCell id="psbZgki1PjB1DpVuzoFS-2" style="edgeStyle=orthogonalEdgeStyle;rounded=0;orthogonalLoop=1;jettySize=auto;html=1;entryX=0;entryY=0.5;entryDx=0;entryDy=0;" parent="1" source="psbZgki1PjB1DpVuzoFS-1" target="Ub4LqbdLNaHDUeAe_q9h-20" edge="1">
          <mxGeometry relative="1" as="geometry" />
        </mxCell>
        <mxCell id="psbZgki1PjB1DpVuzoFS-1" value="FIDO&lt;br&gt;(认证器)" style="rounded=0;whiteSpace=wrap;html=1;" parent="1" vertex="1">
          <mxGeometry x="143.5" y="540" width="79" height="40" as="geometry" />
        </mxCell>
      </root>
    </mxGraphModel>
  </diagram>
</mxfile>
